<?xml version="1.0" encoding="utf-8"?>
<!-- Uploaded to: SVG Repo, www.svgrepo.com, Generator: SVG Repo Mixer Tools -->
<svg width="800px" height="800px" viewBox="0 0 1024 1024" class="icon"  version="1.1" xmlns="http://www.w3.org/2000/svg"><path d="M465.3 716.1l-30 56.6-105.6-105.6-50.5-50.5 56.6-30" fill="#F15A23" /><path d="M405.8 646.1l158.3 158.3L597.3 666l113.1-113.1c149.1-149.2 48.6-260 48.6-260s-110.8-100.6-259.9 48.6L386 454.6l-138.5 33.2 158.3 158.3z" fill="#CCCCCC" /><path d="M664.9 482.8c-26.9 26.9-70.5 26.9-97.4 0-26.9-26.9-26.9-70.5 0-97.4 26.9-26.9 70.5-26.9 97.4 0 26.9 26.8 26.9 70.5 0 97.4z" fill="#96C8D1" /><path d="M580.4 806.7l31.9-132.9 108.9-108.9c127-127 82-231.2 58.4-268.3l26.2-26.1c6.7-6.7 6.7-17.5 0-24.2-6.7-6.7-17.5-6.7-24.2 0l-26 26c-35.9-22.9-140.7-69.3-268.5 58.5l-109 108.9-132.8 31.9c-6 1.5-10.8 6-12.5 12-1.7 6 0 12.4 4.4 16.7l77.1 77.1-42.7 22.5c-4.8 2.5-8.1 7.2-8.9 12.6-0.8 5.4 1.1 10.9 4.9 14.7l157 157c3.9 3.9 9.4 5.7 14.7 4.9 5.4-0.8 10.1-4.1 12.6-8.9l22.5-42.7 77.2 77.2c4.4 4.4 10.8 6.1 16.8 4.4 5.9-1.6 10.5-6.4 12-12.4z m164.8-499.9c8.2 9.6 82.4 103.2-48.3 233.9L585.4 652.3c-0.3 0.2-0.6 0.4-0.8 0.7l-73.2 73.2-80.7-80.7 73.2-73.2c6.7-6.7 6.7-17.5 0-24.2-6.7-6.7-17.5-6.7-24.2 0l-73.2 73.2-80.7-80.7 73.2-73.2c0.2-0.2 0.4-0.5 0.6-0.8L511.2 355c130-130 224.6-56.2 234-48.2zM332 485.9l-30.4 30.4-18.6-18.6 49-11.8z m100.3 257.6L308.4 619.6l31.5-16.6 109 109-16.6 31.5z m103.2 6.8l30.4-30.4-11.7 49.1-18.7-18.7zM273.4 657.5c-6.7-6.7-17.5-6.7-24.2 0l-36.3 36.3c-6.7 6.7-6.7 17.5 0 24.2 6.7 6.7 17.5 6.7 24.2 0l36.3-36.3c6.7-6.7 6.7-17.5 0-24.2zM333.9 718c-6.7-6.7-17.5-6.7-24.2 0l-36.3 36.3c-6.7 6.7-6.7 17.5 0 24.2 6.7 6.7 17.5 6.7 24.2 0l36.3-36.3c6.7-6.7 6.7-17.6 0-24.2zM394.4 778.4c-6.7-6.7-17.5-6.7-24.2 0l-36.3 36.3c-6.7 6.7-6.7 17.5 0 24.2 6.7 6.7 17.5 6.7 24.2 0l36.3-36.3c6.7-6.6 6.7-17.5 0-24.2z" fill="#211F1E" /><path d="M542.9 386.4l1.2 1.2c-18.8 28.5-18.8 65.8 0 94.3l-1.2 1.2c-6.7 6.7-6.7 17.5 0 24.2 6.7 6.7 17.5 6.7 24.2 0l1.2-1.2c28.5 18.8 65.8 18.8 94.3 0l1.2 1.2c6.7 6.7 17.5 6.7 24.2 0 6.7-6.7 6.7-17.5 0-24.2l-1.2-1.2c18.8-28.5 18.8-65.9 0-94.3l0.5-0.5c6.7-6.7 6.7-17.5 0-24.2-6.7-6.7-17.5-6.7-24.2 0l-0.5 0.5c-28.5-18.8-65.8-18.8-94.3 0l-1.2-1.2c-6.7-6.7-17.5-6.7-24.2 0-6.6 6.7-6.6 17.5 0 24.2z m108.9 12.1c20 20 20 52.6 0 72.6-20 20-52.6 20-72.6 0-20-20-20-52.6 0-72.6 20-20 52.6-20 72.6 0z" fill="#211F1E" /><path d="M631.6 461.6c-3-3-3.4-7.7-0.9-11.2 12.1-16.5-0.2-30.2-0.7-30.8-3.2-3.5-3-8.9 0.5-12.2 3.5-3.2 9-3 12.2 0.5 7.8 8.4 18.1 30.3 1.9 52.5-2.8 3.8-8.2 4.7-12 1.9-0.3-0.1-0.7-0.4-1-0.7z" fill="#FFFFFF" /></svg>